<svg id="Layer_1" data-name="Layer 1" xmlns="http://www.w3.org/2000/svg" viewBox="0 0 440.03 364"><defs><style>.cls-1{fill:#c3c3c3;}.cls-2{fill:#e6e6e6;}.cls-3{fill:#acacac;}.cls-11,.cls-13,.cls-15,.cls-17,.cls-4,.cls-6,.cls-8{fill:#fff;}.cls-5{fill:#f26b3d;}.cls-5,.cls-6{stroke:#f26b3d;}.cls-10,.cls-11,.cls-12,.cls-13,.cls-14,.cls-15,.cls-16,.cls-17,.cls-5,.cls-6,.cls-7,.cls-8,.cls-9{stroke-miterlimit:10;}.cls-7{fill:#fca468;}.cls-7,.cls-8{stroke:#fca468;}.cls-9{fill:#963;}.cls-10,.cls-9{stroke:#964;}.cls-10{fill:#964;}.cls-11{stroke:#963;}.cls-12{fill:#f7964d;}.cls-12,.cls-13{stroke:#f7964d;}.cls-14{fill:#af5746;}.cls-14,.cls-15{stroke:#af5746;}.cls-16{fill:#fca338;}.cls-16,.cls-17{stroke:#fca338;}</style></defs><path d="M628.1,229.5H271.92a16.41,16.41,0,0,0-16.41,16.41V458.5h389V245.91A16.4,16.4,0,0,0,628.1,229.5Z" transform="translate(-255.51 -187.5)"/><path class="cls-1" d="M255.51,458.5v34.59a16.41,16.41,0,0,0,16.41,16.41H628.1a16.41,16.41,0,0,0,16.41-16.41V458.5Z" transform="translate(-255.51 -187.5)"/><rect class="cls-2" x="16" y="59" width="356" height="200"/><rect class="cls-3" x="157" y="322" width="75" height="37"/><path class="cls-1" d="M506.91,551.5H392.61A2.43,2.43,0,0,1,390.3,550a2.5,2.5,0,0,1,2.19-3.49h114.3A2.44,2.44,0,0,1,509.1,548,2.5,2.5,0,0,1,506.91,551.5Z" transform="translate(-255.51 -187.5)"/><rect class="cls-4" x="16.49" y="58.5" width="356" height="200"/><path class="cls-5" d="M608.27,252.45a52,52,0,0,0-2.51-12.18L590.61,238a46.79,46.79,0,0,0-6.13-10.25l3.42-12.84a58,58,0,0,0-11.4-7.12l-9.29,6.66A42.76,42.76,0,0,0,552.4,211l-5.28-8.82a59.67,59.67,0,0,0-13.74,2.49l-1.67,10.56A44.29,44.29,0,0,0,520,223.55l-12-3.07a54.59,54.59,0,0,0-7.81,10.69l8.3,11.1a47.31,47.31,0,0,0-2.19,11.5L493.59,261a52.88,52.88,0,0,0,2.57,12.61l13.87,2.1a46.35,46.35,0,0,0,6.64,10.91l-3.17,11.88A57.91,57.91,0,0,0,525,305.89l8.83-6.34a42.51,42.51,0,0,0,15,3.28l5.29,8.85a60.31,60.31,0,0,0,13.69-2.33l1.75-11.08a44.19,44.19,0,0,0,11.21-8.12l13,3.32a55.23,55.23,0,0,0,7.66-10.35L592.42,271a47.7,47.7,0,0,0,2-10.58Z" transform="translate(-255.51 -187.5)"/><ellipse class="cls-6" cx="295.13" cy="69.41" rx="24.52" ry="24.02"/><path class="cls-7" d="M446.44,282.41a69.65,69.65,0,0,0-14.59,7.68l2.66,20.14a61.34,61.34,0,0,0-10.8,11.59l-17.61.37a76.68,76.68,0,0,0-4.86,17.14l11.91,9.37a56.21,56.21,0,0,0,1.1,20.12l-9.3,10a79.86,79.86,0,0,0,8.23,16.58l14.07-1.77a58.54,58.54,0,0,0,14.91,11.89l.51,16.42a73.21,73.21,0,0,0,16.49,6l11.07-14.66a62.64,62.64,0,0,0,15.45-1.44l13.93,13.44a69.58,69.58,0,0,0,15.11-7.91l-2.44-18.43a61.66,61.66,0,0,0,11.45-12.46L540,386.1a76.22,76.22,0,0,0,5.11-17.39l-11.32-8.91a56.48,56.48,0,0,0-1.36-20.35l9.31-10a79.59,79.59,0,0,0-8-16.57L519,314.74a58.71,58.71,0,0,0-14.47-11.29L504,285.7a73.34,73.34,0,0,0-16-5.94l-12.1,16a63.1,63.1,0,0,0-14.19,1.38Z" transform="translate(-255.51 -187.5)"/><ellipse class="cls-7" cx="473.34" cy="354.14" rx="31.83" ry="32.5" transform="translate(-335.28 -42.02) rotate(-16.13)"/><circle class="cls-8" cx="217.97" cy="166.67" r="38.42"/><path class="cls-9" d="M633.08,344.86a39.17,39.17,0,0,0-1.67-9.45l-12-2.2a36,36,0,0,0-4.61-8.07l3.08-9.78a46.62,46.62,0,0,0-8.89-5.81l-7.59,4.87a35,35,0,0,0-11.71-3.05l-4-6.95a49.8,49.8,0,0,0-11,1.52L573.07,314a35.32,35.32,0,0,0-9.59,6.06l-9.49-2.7a42.66,42.66,0,0,0-6.52,8l6.31,8.78a35.56,35.56,0,0,0-2.06,8.79l-10.3,5.24a39.38,39.38,0,0,0,1.7,9.78l11,2a35.14,35.14,0,0,0,5,8.58l-2.86,9.06a46.4,46.4,0,0,0,9,6l7.22-4.62a35,35,0,0,0,11.9,2.95l4,7a49.41,49.41,0,0,0,11-1.4L601,379a35,35,0,0,0,9.16-5.93L620.43,376a42.57,42.57,0,0,0,6.39-7.75l-6.89-9.59a36.1,36.1,0,0,0,1.87-8.09Z" transform="translate(-255.51 -187.5)"/><ellipse class="cls-10" cx="587.02" cy="346.64" rx="18.5" ry="19.56" transform="translate(-64.4 714.12) rotate(-85.06)"/><circle class="cls-11" cx="331.42" cy="159.26" r="17.52"/><path class="cls-12" d="M674.21,241.77a45.12,45.12,0,0,0-9.65-4.49l-9.31,9.23a39.89,39.89,0,0,0-10.17-1l-7.07-8.9a50.11,50.11,0,0,0-10.71,4.19l-.16,9.79a36.34,36.34,0,0,0-9.9,8.42l-8.76-.88a51.3,51.3,0,0,0-5.3,10.71l6.41,6.54a37.61,37.61,0,0,0-.29,12.3l-8.24,6.68a47.48,47.48,0,0,0,3.36,10.82l11.86,0a40.59,40.59,0,0,0,6.78,7.37l-1.47,12.41a44.29,44.29,0,0,0,10,4.67l8.52-8.45a39.65,39.65,0,0,0,10.87,1l6.55,8.24a49.53,49.53,0,0,0,10.93-4.17l.15-9.3a36.39,36.39,0,0,0,9.93-8.65l8.77.88a51.08,51.08,0,0,0,5.39-10.59L686,291.69a38,38,0,0,0,.15-11.85l8.9-7.22a46.66,46.66,0,0,0-3.2-10.54l-12.95,0a41,41,0,0,0-6.25-6.76Z" transform="translate(-255.51 -187.5)"/><circle class="cls-13" cx="392.52" cy="95.91" r="21.12"/><path class="cls-14" d="M491.71,255a23.5,23.5,0,0,0-1.18-5.57l-7.11-1a20.39,20.39,0,0,0-2.88-4.68l1.6-5.88a28,28,0,0,0-5.35-3.24l-4.35,3.06a20.08,20.08,0,0,0-6.94-1.55L463,232a28.85,28.85,0,0,0-6.43,1.14l-.77,4.84a20.55,20.55,0,0,0-5.5,3.8l-5.63-1.39a25.84,25.84,0,0,0-3.65,4.89l3.9,5.07a20.77,20.77,0,0,0-1,5.26L438,259a23.42,23.42,0,0,0,1.21,5.76l6.5.95a21,21,0,0,0,3.12,5l-1.48,5.43a27.19,27.19,0,0,0,5.41,3.35l4.13-2.9a20.46,20.46,0,0,0,7.05,1.49l2.49,4a28.73,28.73,0,0,0,6.41-1.07l.81-5.07a20.61,20.61,0,0,0,5.24-3.72l6.09,1.51a25.33,25.33,0,0,0,3.58-4.74l-4.26-5.53a21.58,21.58,0,0,0,.92-4.84Z" transform="translate(-255.51 -187.5)"/><ellipse class="cls-14" cx="464.72" cy="257.05" rx="11.49" ry="10.98" transform="translate(-255.98 -186.66) rotate(-0.1)"/><circle class="cls-15" cx="209.34" cy="69.55" r="12.24"/><path class="cls-14" d="M680.21,218.46a23.66,23.66,0,0,0,.23-5.81l-6.77-2.82a21.21,21.21,0,0,0-1.67-5.37l3.06-5.41a27.2,27.2,0,0,0-4.48-4.56l-5.07,1.93a20.8,20.8,0,0,0-6.49-3.29l-1.44-4.62a29,29,0,0,0-6.66-.48l-2,4.59a21.17,21.17,0,0,0-6.41,2.38l-5.22-2.8a25.84,25.84,0,0,0-4.85,3.93l2.58,6a21.83,21.83,0,0,0-2.33,5l-6.71,1.8a23.46,23.46,0,0,0-.25,6l6.19,2.58a21.29,21.29,0,0,0,1.83,5.71l-2.83,5a28.08,28.08,0,0,0,4.51,4.68l4.83-1.84a20.55,20.55,0,0,0,6.6,3.25l1.44,4.63a29.36,29.36,0,0,0,6.63.55l2.08-4.81a21,21,0,0,0,6.13-2.36l5.65,3a26,26,0,0,0,4.74-3.79L670.73,225a21.53,21.53,0,0,0,2.13-4.55Z" transform="translate(-255.51 -187.5)"/><ellipse class="cls-14" cx="652.95" cy="213.71" rx="11.22" ry="11.74" transform="translate(30.13 606.82) rotate(-75.8)"/><circle class="cls-15" cx="397.57" cy="26.25" r="12.51"/><path class="cls-16" d="M437.13,280.92a51.5,51.5,0,0,0,.48-12.25l-14.07-5.95a46.09,46.09,0,0,0-3.48-11.31L426.42,240a58.7,58.7,0,0,0-9.3-9.62l-10.55,4.07a43.21,43.21,0,0,0-13.48-6.94l-3-9.73a59.83,59.83,0,0,0-13.85-1l-4.12,9.68a43.77,43.77,0,0,0-13.31,5L348,225.55a53.4,53.4,0,0,0-10.07,8.27l5.36,12.66a45.69,45.69,0,0,0-4.85,10.44l-13.95,3.81a51,51,0,0,0-.52,12.68l12.88,5.44a45.93,45.93,0,0,0,3.8,12.06l-5.89,10.57a58.68,58.68,0,0,0,9.38,9.87l10-3.87a42.76,42.76,0,0,0,13.73,6.86l3,9.76a60.46,60.46,0,0,0,13.77,1.16l4.32-10.15a43.59,43.59,0,0,0,12.75-5l11.73,6.38a53.48,53.48,0,0,0,9.86-8l-5.86-13.83a46,46,0,0,0,4.43-9.61Z" transform="translate(-255.51 -187.5)"/><ellipse class="cls-16" cx="380.47" cy="270.91" rx="23.63" ry="24.43" transform="translate(-260.74 346.83) rotate(-69.78)"/><ellipse class="cls-16" cx="125.23" cy="83.5" rx="25.99" ry="26.38"/><circle class="cls-17" cx="123.88" cy="84.97" r="23.63"/><circle class="cls-17" cx="125.41" cy="83.55" r="31.23"/></svg>